HIERARCHY
ROOT reference
{
  OFFSET 0 0 0
  CHANNELS 6 Xposition Yposition Zposition Zrotation Xrotation Yrotation
  JOINT Hips
  {
    OFFSET 340.57 87.5694 214.797
    CHANNELS 3 Zrotation Xrotation Yrotation
    JOINT RightUpLeg
    {
      OFFSET -9.35418 -1.55218 -0.019184
      CHANNELS 3 Zrotation Xrotation Yrotation
      JOINT RightLeg
      {
        OFFSET -0.0482219 -41.8948 0.0725956
        CHANNELS 3 Zrotation Xrotation Yrotation
        JOINT RightFoot
        {
          OFFSET -1.00159 -42.3965 -1.97064
          CHANNELS 3 Zrotation Xrotation Yrotation
          End Site
          {
            OFFSET 0 -7.69 17.5
          }
        }
      }
    }
    JOINT LeftUpLeg
    {
      OFFSET 9.33628 -1.64535 -0.0795185
      CHANNELS 3 Zrotation Xrotation Yrotation
      JOINT LeftLeg
      {
        OFFSET 0.124871 -41.8725 -0.08325
        CHANNELS 3 Zrotation Xrotation Yrotation
        JOINT LeftFoot
        {
          OFFSET 0.728222 -40.8097 2.1196
          CHANNELS 3 Zrotation Xrotation Yrotation
          End Site
          {
            OFFSET 0 -7.69 17.5
          }
        }
      }
    }
    JOINT Spine
    {
      OFFSET -0.0135102 14.2943 0.0647361
      CHANNELS 3 Zrotation Xrotation Yrotation
      JOINT Spine1
      {
        OFFSET 0.0181502 9.72385 0.0148045
        CHANNELS 3 Zrotation Xrotation Yrotation
        JOINT Spine2
        {
          OFFSET 0.0557859 10.1166 -0.00979693
          CHANNELS 3 Zrotation Xrotation Yrotation
          JOINT Spine3
          {
            OFFSET 0.0359868 9.71757 0.00306838
            CHANNELS 3 Zrotation Xrotation Yrotation
            JOINT Neck
            {
              OFFSET 0.139197 10.3803 0.0501204
              CHANNELS 3 Zrotation Xrotation Yrotation
              JOINT Head
              {
                OFFSET 0.148012 9.47645 -0.000545472
                CHANNELS 3 Zrotation Xrotation Yrotation
                End Site
                {
                  OFFSET 0 15.95 0
                }
              }
            }
            JOINT RightShoulder
            {
              OFFSET -3.16276 6.92807 0.0312834
              CHANNELS 3 Zrotation Xrotation Yrotation
              JOINT RightArm
              {
                OFFSET -12.7681 0.0492996 0.0890957
                CHANNELS 3 Zrotation Xrotation Yrotation
                JOINT RightForeArm
                {
                  OFFSET -26.4761 -0.090776 0.147076
                  CHANNELS 3 Zrotation Xrotation Yrotation
                  JOINT RightHand
                  {
                    OFFSET -25.9655 0.0607057 -0.248467
                    CHANNELS 3 Zrotation Xrotation Yrotation
                    JOINT RightHandThumb1
                    {
                      OFFSET -2.48905 0.190105 3.12053
                      CHANNELS 3 Zrotation Xrotation Yrotation
                      JOINT RightHandThumb2
                      {
                        OFFSET -3.68274 0 0
                        CHANNELS 3 Zrotation Xrotation Yrotation
                        JOINT RightHandThumb3
                        {
                          OFFSET -2.55832 0 0
                          CHANNELS 3 Zrotation Xrotation Yrotation
                          End Site
                          {
                            OFFSET -2.194 0 0
                          }
                        }
                      }
                    }
                    JOINT RightInHandIndex
                    {
                      OFFSET -3.22368 0.508421 1.97842
                      CHANNELS 3 Zrotation Xrotation Yrotation
                      JOINT RightHandIndex1
                      {
                        OFFSET -5.21684 -0.091368 0.999158
                        CHANNELS 3 Zrotation Xrotation Yrotation
                        JOINT RightHandIndex2
                        {
                          OFFSET -3.61937 0 0
                          CHANNELS 3 Zrotation Xrotation Yrotation
                          JOINT RightHandIndex3
                          {
                            OFFSET -2.0521 0 0
                            CHANNELS 3 Zrotation Xrotation Yrotation
                            End Site
                            {
                              OFFSET -1.805 0 0
                            }
                          }
                        }
                      }
                    }
                    JOINT RightInHandMiddle
                    {
                      OFFSET -3.38211 0.517263 0.756737
                      CHANNELS 3 Zrotation Xrotation Yrotation
                      JOINT RightHandMiddle1
                      {
                        OFFSET -5.17411 -0.084 0.313895
                        CHANNELS 3 Zrotation Xrotation Yrotation
                        JOINT RightHandMiddle2
                        {
                          OFFSET -3.94947 0 0
                          CHANNELS 3 Zrotation Xrotation Yrotation
                          JOINT RightHandMiddle3
                          {
                            OFFSET -2.47579 0 0
                            CHANNELS 3 Zrotation Xrotation Yrotation
                            End Site
                            {
                              OFFSET -1.975 0 0
                            }
                          }
                        }
                      }
                    }
                    JOINT RightInHandRing
                    {
                      OFFSET -3.36516 0.537895 -0.128947
                      CHANNELS 3 Zrotation Xrotation Yrotation
                      JOINT RightHandRing1
                      {
                        OFFSET -4.63474 -0.022105 -0.478947
                        CHANNELS 3 Zrotation Xrotation Yrotation
                        JOINT RightHandRing2
                        {
                          OFFSET -3.44238 0 0
                          CHANNELS 3 Zrotation Xrotation Yrotation
                          JOINT RightHandRing3
                          {
                            OFFSET -2.3881 0 0
                            CHANNELS 3 Zrotation Xrotation Yrotation
                            End Site
                            {
                              OFFSET -1.857 0 0
                            }
                          }
                        }
                      }
                    }
                    JOINT RightInHandPinky
                    {
                      OFFSET -3.16105 0.469368 -1.20179
                      CHANNELS 3 Zrotation Xrotation Yrotation
                      JOINT RightHandPinky1
                      {
                        OFFSET -4.14105 -0.022105 -1.09053
                        CHANNELS 3 Zrotation Xrotation Yrotation
                        JOINT RightHandPinky2
                        {
                          OFFSET -2.75653 0 0
                          CHANNELS 3 Zrotation Xrotation Yrotation
                          JOINT RightHandPinky3
                          {
                            OFFSET -1.74189 0 0
                            CHANNELS 3 Zrotation Xrotation Yrotation
                            End Site
                            {
                              OFFSET -1.645 0 0
                            }
                          }
                        }
                      }
                    }
                  }
                }
              }
            }
            JOINT LeftShoulder
            {
              OFFSET 3.20588 6.97332 0.0254387
              CHANNELS 3 Zrotation Xrotation Yrotation
              JOINT LeftArm
              {
                OFFSET 12.8648 0.0341024 0.0247643
                CHANNELS 3 Zrotation Xrotation Yrotation
                JOINT LeftForeArm
                {
                  OFFSET 26.5059 -0.0470976 -0.0807017
                  CHANNELS 3 Zrotation Xrotation Yrotation
                  JOINT LeftHand
                  {
                    OFFSET 26.0013 -0.0100885 -0.0649647
                    CHANNELS 3 Zrotation Xrotation Yrotation
                    JOINT LeftHandThumb1
                    {
                      OFFSET 2.48905 0.190105 3.12053
                      CHANNELS 3 Zrotation Xrotation Yrotation
                      JOINT LeftHandThumb2
                      {
                        OFFSET 3.68274 0 0
                        CHANNELS 3 Zrotation Xrotation Yrotation
                        JOINT LeftHandThumb3
                        {
                          OFFSET 2.55832 0 0
                          CHANNELS 3 Zrotation Xrotation Yrotation
                          End Site
                          {
                            OFFSET 2.194 0 0
                          }
                        }
                      }
                    }
                    JOINT LeftInHandIndex
                    {
                      OFFSET 3.22368 0.508421 1.97842
                      CHANNELS 3 Zrotation Xrotation Yrotation
                      JOINT LeftHandIndex1
                      {
                        OFFSET 5.21684 -0.091368 0.999158
                        CHANNELS 3 Zrotation Xrotation Yrotation
                        JOINT LeftHandIndex2
                        {
                          OFFSET 3.61937 0 0
                          CHANNELS 3 Zrotation Xrotation Yrotation
                          JOINT LeftHandIndex3
                          {
                            OFFSET 2.0521 0 0
                            CHANNELS 3 Zrotation Xrotation Yrotation
                            End Site
                            {
                              OFFSET 1.805 0 0
                            }
                          }
                        }
                      }
                    }
                    JOINT LeftInHandMiddle
                    {
                      OFFSET 3.38211 0.517263 0.756737
                      CHANNELS 3 Zrotation Xrotation Yrotation
                      JOINT LeftHandMiddle1
                      {
                        OFFSET 5.17411 -0.084 0.313895
                        CHANNELS 3 Zrotation Xrotation Yrotation
                        JOINT LeftHandMiddle2
                        {
                          OFFSET 3.94947 0 0
                          CHANNELS 3 Zrotation Xrotation Yrotation
                          JOINT LeftHandMiddle3
                          {
                            OFFSET 2.47579 0 0
                            CHANNELS 3 Zrotation Xrotation Yrotation
                            End Site
                            {
                              OFFSET 1.975 0 0
                            }
                          }
                        }
                      }
                    }
                    JOINT LeftInHandRing
                    {
                      OFFSET 3.36516 0.537895 -0.128947
                      CHANNELS 3 Zrotation Xrotation Yrotation
                      JOINT LeftHandRing1
                      {
                        OFFSET 4.63474 -0.022105 -0.478947
                        CHANNELS 3 Zrotation Xrotation Yrotation
                        JOINT LeftHandRing2
                        {
                          OFFSET 3.44238 0 0
                          CHANNELS 3 Zrotation Xrotation Yrotation
                          JOINT LeftHandRing3
                          {
                            OFFSET 2.3881 0 0
                            CHANNELS 3 Zrotation Xrotation Yrotation
                            End Site
                            {
                              OFFSET 1.857 0 0
                            }
                          }
                        }
                      }
                    }
                    JOINT LeftInHandPinky
                    {
                      OFFSET 3.16105 0.469368 -1.20179
                      CHANNELS 3 Zrotation Xrotation Yrotation
                      JOINT LeftHandPinky1
                      {
                        OFFSET 4.14105 -0.022105 -1.09053
                        CHANNELS 3 Zrotation Xrotation Yrotation
                        JOINT LeftHandPinky2
                        {
                          OFFSET 2.75653 0 0
                          CHANNELS 3 Zrotation Xrotation Yrotation
                          JOINT LeftHandPinky3
                          {
                            OFFSET 1.74189 0 0
                            CHANNELS 3 Zrotation Xrotation Yrotation
                            End Site
                            {
                              OFFSET 1.645 0 0
                            }
                          }
                        }
                      }
                    }
                  }
                }
              }
            }
          }
        }
      }
    }
  }
}
MOTION
Frames: 2
Frame Time: 0.00833333
3.150000000000000000e+03 0.000000000000000000e+00 0.000000000000000000e+00 0.000000000000000000e+00 0.000000000000000000e+00 0.000000000000000000e+00 2.851610000000000866e+01 6.936840000000001893e+00 -1.034390000000000072e+02 2.092770000000000152e+01 -4.999029999999999774e+01 1.030150000000000254e+01 -5.729490000000000194e+00 2.413560000000000372e+01 -1.014939999999999287e+00 4.640349999999999753e+00 8.292350000000001664e-01 3.693730000000000047e+01 3.734020000000001005e+01 -1.801939999999999742e+01 1.222539999999999871e+01 -6.280289999999999040e+00 3.196459999999999724e+01 4.640349999999999753e-01 -6.471310000000229934e-02 -1.568549999999999933e+01 1.232630000000000159e+01 -6.854589999999999961e+00 1.452709999999999724e+00 -6.238520000000001176e+00 -1.731540000000000079e+00 1.935540000000000038e-01 -1.607159999999999922e+00 -2.865069999999999339e+00 2.593539999999998624e-01 -2.674620000000000442e+00 -6.613340000000000884e-01 -4.085730000000000750e-01 2.198640000000000150e+00 -1.755079999999999973e+00 -2.259940000000000282e+00 1.260919999999999952e+01 -1.135670000000000002e+01 -1.878950000000000120e+00 3.482509999999999906e+01 8.970520000000002270e+00 4.840819999999990131e-01 -1.884720000000000617e+00 6.890900000000000603e+01 -2.738529999999999731e+01 1.756479999999999819e+01 2.178460000000000463e+01 -1.850439999999999685e+01 1.043000000000000114e+02 1.332130000000000081e+01 -3.219859999999999900e+01 1.564879999999999782e+01 2.818400000000000105e+01 1.072940000000000005e+01 1.915919999999999845e+01 1.906350000000000063e-14 -6.361109999999999741e-15 -1.000000000000000000e+01 3.360599999999995877e-16 -9.541660000000000512e-15 -1.000000000000000000e+01 -9.541660000000000512e-15 0.000000000000000000e+00 3.180550000000000771e-15 1.998179999999999978e+01 8.718970000000000331e-01 2.396399999999999864e+00 2.400000000000000000e+01 -3.180549999999999982e-15 1.431250000000000212e-14 2.000000000000000000e+01 1.590280000000000116e-14 1.272219999999999993e-14 -9.541660000000000512e-15 0.000000000000000000e+00 3.180550000000000771e-15 2.000000000000000000e+01 3.180549999999999982e-15 -5.963540000000003814e-16 2.400000000000000000e+01 3.180549999999999982e-15 -8.746530000000000547e-15 2.000000000000000000e+01 -6.361109999999999741e-15 -2.067359999999999735e-14 -9.541660000000000512e-15 0.000000000000000000e+00 3.180550000000000771e-15 1.997479999999999833e+01 -1.025649999999999951e+00 -2.819380000000000219e+00 2.400000000000000000e+01 -1.590279999999999880e-15 -3.975689999999998936e-15 2.000000000000000000e+01 -7.951389999999999226e-15 -1.908330000000000462e-14 -9.541660000000000512e-15 0.000000000000000000e+00 3.180550000000000771e-15 1.978150000000000119e+01 -3.009479999999999933e+00 -8.305149999999999366e+00 2.400000000000000000e+01 1.590280000000000274e-15 -2.226389999999999955e-14 2.000000000000000000e+01 -4.770830000000000256e-15 -6.361109999999998163e-15 8.939989999999999881e+00 -1.423789999999999978e+01 -4.614039999999999964e+01 -1.943600000000000705e+01 3.938050000000000495e+01 -1.056839999999999975e+02 2.671239999999999526e+01 -5.139800000000001035e+00 -1.570229999999999393e+01 -3.875359999999999161e+01 -8.384850000000000136e+00 -1.110060000000000002e+01 -2.818400000000000105e+01 1.072940000000000005e+01 -1.915919999999999845e+01 -1.121639999999999822e-15 6.361110000000000530e-15 1.000000000000000000e+01 2.668800000000000294e-15 3.180549999999999982e-15 1.000000000000000000e+01 -3.180549999999999982e-15 3.180549999999999982e-15 0.000000000000000000e+00 -1.998179999999999978e+01 8.718970000000000331e-01 -2.396399999999999864e+00 -2.400000000000000000e+01 0.000000000000000000e+00 1.431249999999999897e-14 -2.000000000000000000e+01 0.000000000000000000e+00 9.740449999999999153e-15 -3.180549999999999982e-15 3.180549999999999982e-15 0.000000000000000000e+00 -2.000000000000000000e+01 6.361110000000000530e-15 -1.590280000000000116e-14 -2.400000000000000000e+01 9.541660000000000512e-15 -9.541660000000000512e-15 -2.000000000000000000e+01 -9.541659999999998934e-15 3.975690000000001302e-15 -3.180549999999999982e-15 3.180549999999999982e-15 0.000000000000000000e+00 -1.997479999999999833e+01 -1.025649999999999951e+00 2.819380000000000219e+00 -2.400000000000000000e+01 -9.541660000000000512e-15 -8.746530000000000547e-15 -2.000000000000000000e+01 -6.361110000000000530e-15 2.504690000000000395e-14 -3.180549999999999982e-15 3.180549999999999982e-15 0.000000000000000000e+00 -1.978150000000000119e+01 -3.009479999999999933e+00 8.305149999999999366e+00 -2.400000000000000000e+01 7.951389999999996071e-15 1.192710000000000403e-15 -2.000000000000000000e+01 1.590280000000000077e-15 2.007730000000000145e-14
3.150000000000000000e+03 0.000000000000000000e+00 0.000000000000000000e+00 0.000000000000000000e+00 0.000000000000000000e+00 0.000000000000000000e+00 2.842180000000000462e+01 7.357009999999999827e+00 -1.023949999999999960e+02 1.973569999999999425e+01 -5.021910000000000451e+01 1.106629999999999825e+01 -4.668680000000000163e+00 2.429319999999999879e+01 -3.222050000000000303e+00 4.834360000000001101e+00 8.187280000000001223e-01 3.638029999999999831e+01 3.738110000000000355e+01 -1.868130000000000024e+01 1.231690000000000396e+01 -5.981189999999999785e+00 3.182700000000000173e+01 2.273909999999998988e-01 -6.743659999999991328e-01 -1.616339999999999932e+01 1.145010000000000083e+01 -6.737800000000000900e+00 1.715490000000000181e+00 -6.153410000000000935e+00 -1.704599999999999671e+00 2.704560000000000297e-01 -1.595279999999999587e+00 -2.819269999999999499e+00 3.940539999999999043e-01 -2.661810000000000009e+00 -6.502470000000000194e-01 -3.885820000000000385e-01 2.168869999999999632e+00 -1.663209999999999855e+00 -2.026719999999999633e+00 1.154899999999999949e+01 -1.121819999999999951e+01 -2.050759999999999916e+00 3.499509999999999366e+01 8.879530000000000811e+00 3.093119999999993652e-01 -1.400059999999999860e+00 6.959149999999998215e+01 -2.618860000000000099e+01 1.797599999999999909e+01 2.155369999999999919e+01 -1.849299999999999500e+01 1.029149999999999920e+02 1.341810000000000258e+01 -3.243990000000000862e+01 1.616529999999999490e+01 2.818400000000000105e+01 1.072940000000000005e+01 1.915919999999999845e+01 8.006410000000003027e-15 -9.541659999999998934e-15 -1.000000000000000000e+01 3.360599999999997849e-16 -9.541660000000002090e-15 -1.000000000000000000e+01 3.180549999999999193e-15 -3.180550000000000771e-15 6.361109999999999741e-15 1.998179999999999978e+01 8.718970000000000331e-01 2.396399999999999864e+00 2.400000000000000000e+01 -1.113189999999999931e-14 1.590279999999999485e-15 2.000000000000000000e+01 9.541659999999998934e-15 -7.951389999999996071e-15 3.180549999999999193e-15 -3.180550000000000771e-15 6.361109999999999741e-15 2.000000000000000000e+01 3.180550000000000376e-15 3.975690000000008402e-16 2.400000000000000000e+01 -7.951389999999999226e-15 -1.749310000000000020e-14 2.000000000000000000e+01 -9.541660000000000512e-15 -2.226390000000000270e-14 3.180549999999999193e-15 -3.180550000000000771e-15 6.361109999999999741e-15 1.997479999999999833e+01 -1.025649999999999951e+00 -2.819380000000000219e+00 2.400000000000000000e+01 -7.951389999999999226e-15 -1.431250000000000212e-14 2.000000000000000000e+01 -1.272219999999999993e-14 -2.544440000000000301e-14 3.180549999999999193e-15 -3.180550000000000771e-15 6.361109999999999741e-15 1.978150000000000119e+01 -3.009479999999999933e+00 -8.305149999999999366e+00 2.400000000000000000e+01 1.590280000000000077e-15 -3.101040000000000234e-14 2.000000000000000000e+01 -9.541660000000000512e-15 -1.431249999999999897e-14 9.196869999999998768e+00 -1.375380000000000003e+01 -4.533879999999999910e+01 -2.028059999999999974e+01 3.941770000000001062e+01 -1.045080000000000098e+02 2.632940000000000325e+01 -5.081569999999999254e+00 -1.555640000000000001e+01 -3.876429999999999865e+01 -8.266590000000000771e+00 -1.070150000000000112e+01 -2.818400000000000105e+01 1.072940000000000005e+01 -1.915919999999999845e+01 -7.155339999999999238e-15 2.226389999999999955e-14 1.000000000000000000e+01 1.123600000000000035e-14 9.541660000000000512e-15 1.000000000000000000e+01 9.541659999999997356e-15 -7.951389999999999226e-15 4.770829999999999467e-15 -1.998179999999999978e+01 8.718970000000000331e-01 -2.396399999999999864e+00 -2.400000000000000000e+01 -3.180550000000000771e-15 1.431249999999999897e-14 -2.000000000000000000e+01 3.180549999999999587e-15 1.749310000000000020e-14 9.541659999999997356e-15 -7.951389999999999226e-15 4.770829999999999467e-15 -2.000000000000000000e+01 -1.113189999999999931e-14 6.361109999999999741e-15 -2.400000000000000000e+01 0.000000000000000000e+00 1.272219999999999993e-14 -2.000000000000000000e+01 -3.180549999999999193e-15 1.351739999999999833e-14 9.541659999999997356e-15 -7.951389999999999226e-15 4.770829999999999467e-15 -1.997479999999999833e+01 -1.025649999999999951e+00 2.819380000000000219e+00 -2.400000000000000000e+01 -4.770830000000001045e-15 1.351739999999999676e-14 -2.000000000000000000e+01 -1.590280000000000274e-15 2.156810000000000114e-14 9.541659999999997356e-15 -7.951389999999999226e-15 4.770829999999999467e-15 -1.978150000000000119e+01 -3.009479999999999933e+00 8.305149999999999366e+00 -2.400000000000000000e+01 9.541660000000002090e-15 7.951390000000000804e-15 -2.000000000000000000e+01 -1.590279999999999288e-15 2.832679999999999636e-14
